<?xml version="1.0" standalone="no"?>
<!DOCTYPE svg PUBLIC "-//W3C//DTD SVG 20010904//EN"
 "http://www.w3.org/TR/2001/REC-SVG-20010904/DTD/svg10.dtd">
<svg version="1.0" xmlns="http://www.w3.org/2000/svg"
 width="256.000000pt" height="256.000000pt" viewBox="0 0 256.000000 256.000000"
 preserveAspectRatio="xMidYMid meet">
<metadata>
Created by potrace 1.11, written by Peter Selinger 2001-2013
</metadata>
<g transform="translate(0.000000,256.000000) scale(0.100000,-0.100000)"
fill="#000000" stroke="none">
<path d="M520 2440 c-200 -52 -361 -183 -450 -365 -53 -108 -70 -186 -70 -326
0 -370 217 -686 875 -1274 110 -98 246 -224 303 -279 l102 -101 103 101 c56
55 192 181 302 279 561 502 797 805 861 1104 18 88 18 269 -2 351 -73 311
-355 530 -683 530 -200 0 -388 -75 -533 -212 l-48 -44 -47 44 c-57 54 -164
124 -230 153 -139 60 -339 76 -483 39z"/>
</g>
</svg>
